<svg xmlns="http://www.w3.org/2000/svg" width="1440" height="900" viewBox="0 0 1440 900">
  <rect width="1440" height="900" fill="#f3f6f8"/>
  <rect width="1440" height="150" fill="#115e59"/>
  <text x="120" y="72" fill="#bff5ee" font-family="Arial" font-size="22" font-weight="700" letter-spacing="2">CORDYN SYSTEMS</text>
  <text x="120" y="122" fill="#ffffff" font-family="Arial" font-size="48" font-weight="800">Review Results</text>

  <g transform="translate(120 205)">
    <rect width="1200" height="570" rx="8" fill="#ffffff" stroke="#dbe3ea"/>
    <text x="32" y="52" fill="#1f2933" font-family="Arial" font-size="32" font-weight="800">Appointment Signals Found</text>
    <text x="32" y="88" fill="#607080" font-family="Arial" font-size="22">Read 74 emails, found 3 appointment actions, ignored 71, skipped 0 duplicates.</text>
    <rect x="930" y="34" width="220" height="50" rx="7" fill="#0f766e"/>
    <text x="962" y="66" fill="#ffffff" font-family="Arial" font-size="20" font-weight="800">Write to Google Sheet</text>

    <rect x="30" y="122" width="1140" height="58" fill="#f7fafc"/>
    <text x="55" y="158" fill="#334155" font-family="Arial" font-size="20" font-weight="800">Priority</text>
    <text x="205" y="158" fill="#334155" font-family="Arial" font-size="20" font-weight="800">Customer</text>
    <text x="430" y="158" fill="#334155" font-family="Arial" font-size="20" font-weight="800">Subject</text>
    <text x="700" y="158" fill="#334155" font-family="Arial" font-size="20" font-weight="800">Pending Action</text>

    <g transform="translate(30 190)">
      <rect width="1140" height="92" fill="#ffffff" stroke="#dbe3ea"/>
      <rect x="24" y="26" width="82" height="32" rx="16" fill="#fee2e2"/>
      <text x="42" y="48" fill="#991b1b" font-family="Arial" font-size="16" font-weight="800">High</text>
      <text x="175" y="38" fill="#1f2933" font-family="Arial" font-size="20" font-weight="700">Asha Mehta</text>
      <text x="175" y="64" fill="#607080" font-family="Arial" font-size="17">asha@example.com</text>
      <text x="400" y="48" fill="#1f2933" font-family="Arial" font-size="20">Need appointment today</text>
      <text x="670" y="48" fill="#1f2933" font-family="Arial" font-size="20">Check available slots and reply.</text>
    </g>

    <g transform="translate(30 292)">
      <rect width="1140" height="92" fill="#ffffff" stroke="#dbe3ea"/>
      <rect x="24" y="26" width="82" height="32" rx="16" fill="#fef3c7"/>
      <text x="31" y="48" fill="#92400e" font-family="Arial" font-size="16" font-weight="800">Medium</text>
      <text x="175" y="38" fill="#1f2933" font-family="Arial" font-size="20" font-weight="700">Ravi Kumar</text>
      <text x="175" y="64" fill="#607080" font-family="Arial" font-size="17">ravi@example.com</text>
      <text x="400" y="48" fill="#1f2933" font-family="Arial" font-size="20">Consultation availability</text>
      <text x="670" y="48" fill="#1f2933" font-family="Arial" font-size="20">Send consultation timing options.</text>
    </g>

    <g transform="translate(30 394)">
      <rect width="1140" height="92" fill="#ffffff" stroke="#dbe3ea"/>
      <rect x="24" y="26" width="82" height="32" rx="16" fill="#e0f2fe"/>
      <text x="46" y="48" fill="#075985" font-family="Arial" font-size="16" font-weight="800">Low</text>
      <text x="175" y="38" fill="#1f2933" font-family="Arial" font-size="20" font-weight="700">Neha Rao</text>
      <text x="175" y="64" fill="#607080" font-family="Arial" font-size="17">neha@example.com</text>
      <text x="400" y="48" fill="#1f2933" font-family="Arial" font-size="20">Possible visit next week</text>
      <text x="670" y="48" fill="#1f2933" font-family="Arial" font-size="20">Clarify if appointment is needed.</text>
    </g>
  </g>
</svg>

